<svg xmlns="http://www.w3.org/2000/svg" viewBox="0 0 1200 700"><defs><linearGradient id="bg" x1="0" y1="0" x2="0" y2="1"><stop stop-color="#45242b"/><stop offset=".52" stop-color="#15181a"/><stop offset="1" stop-color="#070907"/></linearGradient><filter id="g"><feGaussianBlur stdDeviation="18"/></filter></defs><rect width="1200" height="700" fill="url(#bg)"/><g fill="#11161a"><rect x="0" y="210" width="160" height="320"/><rect x="190" y="160" width="185" height="370"/><rect x="400" y="240" width="130" height="290"/><rect x="570" y="185" width="185" height="345"/><rect x="790" y="130" width="170" height="400"/><rect x="985" y="220" width="215" height="310"/></g><rect y="520" width="1200" height="180" fill="#111410"/><circle cx="860" cy="210" r="100" fill="#ff293c" opacity=".13" filter="url(#g)"/><circle cx="760" cy="210" r="100" fill="#2b69ff" opacity=".12" filter="url(#g)"/><g transform="translate(165 300)"><ellipse cx="430" cy="275" rx="430" ry="40" fill="#000" opacity=".52"/><path d="M65 45h585l135 95v205H0V140z" fill="#f1f2f0" stroke="#b9bfc2" stroke-width="7"/><rect x="95" y="95" width="365" height="175" rx="10" fill="#fff"/><rect x="485" y="95" width="160" height="130" rx="10" fill="#dce2e4"/><path d="M0 245h785v45H0z" fill="#d52d35"/><path d="M240 105v135M175 172h130" stroke="#d52d35" stroke-width="34"/><circle cx="125" cy="345" r="57" fill="#050505" stroke="#535a5f" stroke-width="11"/><circle cx="650" cy="345" r="57" fill="#050505" stroke="#535a5f" stroke-width="11"/><rect x="240" y="14" width="100" height="20" rx="8" fill="#2b69ff"/><rect x="340" y="14" width="100" height="20" rx="8" fill="#ff293c"/><text x="470" y="195" fill="#b2202d" font-family="Arial Black,Arial" font-size="40">EMS</text></g><text x="60" y="90" fill="#ff5c66" font-family="Arial Black,Arial" font-size="30">EMS</text><text x="60" y="132" fill="#fff" font-family="Arial" font-size="22" letter-spacing="4">EMERGENCY MEDICAL SERVICES</text></svg>